<mxfile host="app.diagrams.net" modified="2022-06-04T17:28:06.220Z" agent="5.0 (Windows NT 10.0; Win64; x64) AppleWebKit/537.36 (KHTML, like Gecko) Chrome/102.0.0.0 Safari/537.36" etag="lPQb4Uxf7c5BOT6a81cR" version="18.1.3" type="github">
  <diagram id="Xk8LtfRaQdvUlDgHpNeC" name="第 1 页">
    <mxGraphModel dx="1038" dy="539" grid="0" gridSize="10" guides="1" tooltips="1" connect="1" arrows="1" fold="1" page="1" pageScale="1" pageWidth="827" pageHeight="1169" math="0" shadow="0">
      <root>
        <mxCell id="0" />
        <mxCell id="1" parent="0" />
        <mxCell id="gKCtYAIdLct4FZsbOGNo-1" value="用户请求" style="rounded=1;whiteSpace=wrap;html=1;fillColor=#d5e8d4;strokeColor=#82b366;" vertex="1" parent="1">
          <mxGeometry x="402" y="152" width="120" height="60" as="geometry" />
        </mxCell>
        <mxCell id="gKCtYAIdLct4FZsbOGNo-2" value="认证、授权" style="rounded=1;whiteSpace=wrap;html=1;fillColor=#e51400;fontColor=#ffffff;strokeColor=#B20000;" vertex="1" parent="1">
          <mxGeometry x="402" y="276" width="120" height="32" as="geometry" />
        </mxCell>
        <mxCell id="gKCtYAIdLct4FZsbOGNo-3" value="短链子系统后端" style="rounded=1;whiteSpace=wrap;html=1;fillColor=#dae8fc;strokeColor=#6c8ebf;" vertex="1" parent="1">
          <mxGeometry x="402" y="308" width="120" height="60" as="geometry" />
        </mxCell>
        <mxCell id="gKCtYAIdLct4FZsbOGNo-4" value="" style="endArrow=classic;startArrow=classic;html=1;rounded=0;exitX=0.153;exitY=-0.006;exitDx=0;exitDy=0;exitPerimeter=0;" edge="1" parent="1" source="gKCtYAIdLct4FZsbOGNo-2">
          <mxGeometry width="50" height="50" relative="1" as="geometry">
            <mxPoint x="371" y="262" as="sourcePoint" />
            <mxPoint x="421" y="212" as="targetPoint" />
          </mxGeometry>
        </mxCell>
        <mxCell id="gKCtYAIdLct4FZsbOGNo-5" value="" style="endArrow=classic;startArrow=classic;html=1;rounded=0;exitX=0.153;exitY=-0.006;exitDx=0;exitDy=0;exitPerimeter=0;" edge="1" parent="1">
          <mxGeometry width="50" height="50" relative="1" as="geometry">
            <mxPoint x="440.3599999999999" y="274.808" as="sourcePoint" />
            <mxPoint x="441" y="211" as="targetPoint" />
          </mxGeometry>
        </mxCell>
        <mxCell id="gKCtYAIdLct4FZsbOGNo-6" value="" style="endArrow=classic;startArrow=classic;html=1;rounded=0;exitX=0.153;exitY=-0.006;exitDx=0;exitDy=0;exitPerimeter=0;" edge="1" parent="1">
          <mxGeometry width="50" height="50" relative="1" as="geometry">
            <mxPoint x="482.3599999999999" y="274.808" as="sourcePoint" />
            <mxPoint x="483" y="211" as="targetPoint" />
          </mxGeometry>
        </mxCell>
        <mxCell id="gKCtYAIdLct4FZsbOGNo-7" value="" style="endArrow=classic;startArrow=classic;html=1;rounded=0;exitX=0.153;exitY=-0.006;exitDx=0;exitDy=0;exitPerimeter=0;" edge="1" parent="1">
          <mxGeometry width="50" height="50" relative="1" as="geometry">
            <mxPoint x="502.3599999999999" y="274.808" as="sourcePoint" />
            <mxPoint x="503" y="211" as="targetPoint" />
          </mxGeometry>
        </mxCell>
        <mxCell id="gKCtYAIdLct4FZsbOGNo-8" value="&lt;span style=&quot;font-size: 31px;&quot;&gt;&lt;font style=&quot;font-size: 31px;&quot;&gt;...&lt;/font&gt;&lt;/span&gt;" style="text;html=1;align=center;verticalAlign=middle;resizable=0;points=[];autosize=1;strokeColor=none;fillColor=none;fontStyle=1;fontSize=31;" vertex="1" parent="1">
          <mxGeometry x="442" y="218" width="36" height="41" as="geometry" />
        </mxCell>
        <mxCell id="gKCtYAIdLct4FZsbOGNo-9" value="&lt;font style=&quot;font-size: 12px;&quot;&gt;通过API调用服务&lt;/font&gt;" style="text;html=1;align=center;verticalAlign=middle;resizable=0;points=[];autosize=1;strokeColor=none;fillColor=none;fontSize=31;" vertex="1" parent="1">
          <mxGeometry x="536" y="308" width="101" height="47" as="geometry" />
        </mxCell>
        <mxCell id="gKCtYAIdLct4FZsbOGNo-10" value="" style="endArrow=classic;startArrow=classic;html=1;rounded=0;fontSize=12;" edge="1" parent="1">
          <mxGeometry width="50" height="50" relative="1" as="geometry">
            <mxPoint x="524" y="321" as="sourcePoint" />
            <mxPoint x="651" y="321" as="targetPoint" />
          </mxGeometry>
        </mxCell>
        <mxCell id="gKCtYAIdLct4FZsbOGNo-11" value="推广子系统" style="rounded=1;whiteSpace=wrap;html=1;fillColor=#f8cecc;strokeColor=#b85450;" vertex="1" parent="1">
          <mxGeometry x="654" y="292" width="120" height="44" as="geometry" />
        </mxCell>
        <mxCell id="gKCtYAIdLct4FZsbOGNo-12" value="邮件服务子系统" style="rounded=1;whiteSpace=wrap;html=1;fillColor=#f8cecc;strokeColor=#b85450;" vertex="1" parent="1">
          <mxGeometry x="654" y="341" width="120" height="40" as="geometry" />
        </mxCell>
        <mxCell id="gKCtYAIdLct4FZsbOGNo-13" value="" style="endArrow=classic;startArrow=classic;html=1;rounded=0;fontSize=12;" edge="1" parent="1">
          <mxGeometry width="50" height="50" relative="1" as="geometry">
            <mxPoint x="524" y="356" as="sourcePoint" />
            <mxPoint x="651" y="356" as="targetPoint" />
          </mxGeometry>
        </mxCell>
        <mxCell id="gKCtYAIdLct4FZsbOGNo-15" value="对象储存COS" style="sketch=0;aspect=fixed;pointerEvents=1;shadow=0;dashed=0;html=1;strokeColor=none;labelPosition=center;verticalLabelPosition=bottom;verticalAlign=top;align=center;fillColor=#00188D;shape=mxgraph.mscae.enterprise.internet_hollow;fontFamily=Helvetica;fontSize=11;fontColor=default;" vertex="1" parent="1">
          <mxGeometry x="183" y="309.5" width="72.58" height="45" as="geometry" />
        </mxCell>
        <mxCell id="gKCtYAIdLct4FZsbOGNo-18" value="" style="sketch=0;aspect=fixed;html=1;points=[];align=center;image;fontSize=12;image=img/lib/mscae/Cache_Redis_Product.svg;dashed=1;fontFamily=Helvetica;fontColor=default;" vertex="1" parent="1">
          <mxGeometry x="402" y="421" width="45.24" height="38" as="geometry" />
        </mxCell>
        <mxCell id="gKCtYAIdLct4FZsbOGNo-19" value="" style="sketch=0;aspect=fixed;html=1;points=[];align=center;image;fontSize=12;image=img/lib/mscae/Azure_Database_for_MySQL_servers.svg;dashed=1;fontFamily=Helvetica;fontColor=default;" vertex="1" parent="1">
          <mxGeometry x="474" y="423.48" width="27" height="35.52" as="geometry" />
        </mxCell>
        <mxCell id="gKCtYAIdLct4FZsbOGNo-20" value="" style="endArrow=classic;startArrow=classic;html=1;rounded=0;" edge="1" parent="1">
          <mxGeometry width="50" height="50" relative="1" as="geometry">
            <mxPoint x="426" y="418" as="sourcePoint" />
            <mxPoint x="426" y="368" as="targetPoint" />
          </mxGeometry>
        </mxCell>
        <mxCell id="gKCtYAIdLct4FZsbOGNo-21" value="" style="endArrow=classic;startArrow=classic;html=1;rounded=0;" edge="1" parent="1">
          <mxGeometry width="50" height="50" relative="1" as="geometry">
            <mxPoint x="487.0799999999999" y="418" as="sourcePoint" />
            <mxPoint x="487.0799999999999" y="368" as="targetPoint" />
          </mxGeometry>
        </mxCell>
        <mxCell id="gKCtYAIdLct4FZsbOGNo-22" value="&lt;span style=&quot;font-size: 11px; font-weight: 700;&quot;&gt;read/write&lt;/span&gt;" style="text;html=1;align=center;verticalAlign=middle;resizable=0;points=[];autosize=1;strokeColor=none;fillColor=none;" vertex="1" parent="1">
          <mxGeometry x="423" y="387" width="67" height="18" as="geometry" />
        </mxCell>
        <mxCell id="gKCtYAIdLct4FZsbOGNo-25" value="Redis" style="text;html=1;align=center;verticalAlign=middle;resizable=0;points=[];autosize=1;strokeColor=none;fillColor=none;" vertex="1" parent="1">
          <mxGeometry x="402" y="463" width="41" height="18" as="geometry" />
        </mxCell>
        <mxCell id="gKCtYAIdLct4FZsbOGNo-26" value="Mysql" style="text;html=1;align=center;verticalAlign=middle;resizable=0;points=[];autosize=1;strokeColor=none;fillColor=none;" vertex="1" parent="1">
          <mxGeometry x="465" y="463" width="41" height="18" as="geometry" />
        </mxCell>
        <mxCell id="gKCtYAIdLct4FZsbOGNo-27" value="" style="endArrow=classic;startArrow=classic;html=1;rounded=0;exitX=1.066;exitY=0.62;exitDx=0;exitDy=0;exitPerimeter=0;" edge="1" parent="1" source="gKCtYAIdLct4FZsbOGNo-15">
          <mxGeometry width="50" height="50" relative="1" as="geometry">
            <mxPoint x="352" y="386" as="sourcePoint" />
            <mxPoint x="402" y="336" as="targetPoint" />
          </mxGeometry>
        </mxCell>
        <mxCell id="gKCtYAIdLct4FZsbOGNo-28" value="&lt;span style=&quot;color: rgb(0, 0, 0); font-family: Helvetica; font-size: 12px; font-style: normal; font-variant-ligatures: normal; font-variant-caps: normal; font-weight: 400; letter-spacing: normal; orphans: 2; text-align: center; text-indent: 0px; text-transform: none; widows: 2; word-spacing: 0px; -webkit-text-stroke-width: 0px; background-color: rgb(248, 249, 250); text-decoration-thickness: initial; text-decoration-style: initial; text-decoration-color: initial; float: none; display: inline !important;&quot;&gt;读/写用户头像数据&lt;/span&gt;" style="text;whiteSpace=wrap;html=1;" vertex="1" parent="1">
          <mxGeometry x="280.79998779296875" y="307.5999755859375" width="119" height="28" as="geometry" />
        </mxCell>
      </root>
    </mxGraphModel>
  </diagram>
</mxfile>
